<svg xmlns="http://www.w3.org/2000/svg" viewBox="0 0 922.12 1953.66"><defs><style>.cls-1{opacity:0.1;}.cls-2{fill:#fff;}</style></defs><g id="Layer_2" data-name="Layer 2"><g id="Layer_1-2" data-name="Layer 1"><g class="cls-1"><path class="cls-2" d="M592.73,600.54,516.88,708.21h-131a23,23,0,1,0,0,12.42h122.3L416.07,851.34a23.19,23.19,0,1,0,10.14,7.17L725.88,433.07H920.15q1-6.21,2-12.42H722.65a6.22,6.22,0,0,0-5.07,2.63l-67.31,95.57H374.37L150.36,304a6.26,6.26,0,0,0-4.31-1.73,6.21,6.21,0,0,0-4.29,10.69l225.82,216.6a6.14,6.14,0,0,0,4.29,1.74H641.52l-40,56.85H219.24a6.18,6.18,0,0,0-5.31,3L.89,944.63A6.21,6.21,0,0,0,11.53,951l211.22-350.5Z"/><path class="cls-2" d="M198.28,1633.67a6.21,6.21,0,0,0,6.21-6.21V1198.08H342v317.5a6.21,6.21,0,0,0,6.21,6.21H561v386.89a23,23,0,1,0,12.42,0v-393.1a6.2,6.2,0,0,0-6.21-6.21H354.45V1336.13H626.59a23,23,0,1,0,0-12.41H354.45V1198.08h208a6.21,6.21,0,0,0,6.21-6.2V859L675.85,708.72V891a23,23,0,1,0,12.42,0V692.64a6.1,6.1,0,0,0-.21-1l95.39-133.78h99.36q3.21-6.22,6.51-12.42H780.25a6.21,6.21,0,0,0-5.06,2.61L557.4,853.45a6.29,6.29,0,0,0-1.15,3.6v328.62h-358a6.2,6.2,0,0,0-6.21,6.21v435.58A6.22,6.22,0,0,0,198.28,1633.67Z"/><path class="cls-2" d="M792.22,0c-4.85,0-9.7,0-14.55,0L691.34,141.24a22.53,22.53,0,0,0-6.17-1,23.15,23.15,0,1,0,16.79,7.4Z"/></g></g></g></svg>