<svg xmlns="http://www.w3.org/2000/svg" viewBox="0 0 1097.45 2502.76"><defs><style>.cls-1{opacity:0.1;}.cls-2{fill:#fff;}</style></defs><g id="Layer_2" data-name="Layer 2"><g id="Layer_1-2" data-name="Layer 1"><g class="cls-1"><path class="cls-2" d="M5.05,1334.17H383a19.58,19.58,0,1,0,0-10.58H5.27C5.19,1327.12,5.12,1330.64,5.05,1334.17Z"/><path class="cls-2" d="M211.59,1561.89a19.49,19.49,0,0,0-18.75,14.29H.07c0,1.42,0,2.84-.07,4.27q.41,3.15.82,6.31h192a19.53,19.53,0,1,0,18.75-24.87Z"/><path class="cls-2" d="M126.37,1362.05a19.52,19.52,0,0,0-18.75,14.28H4.19c0,.13,0,.26,0,.39-.08,3.4-.15,6.8-.24,10.19H107.62a19.53,19.53,0,1,0,18.75-24.86Z"/><path class="cls-2" d="M190.91,708.64,78.12,834.33,28.63,786.2a5.32,5.32,0,0,0-3.69-1.5H10.28c0,3.53,0,7,0,10.58H22.79l98.28,95.59v241.22a19.59,19.59,0,1,0,10.59,0V888.63a5.34,5.34,0,0,0-1.6-3.8L85.72,841.72,139,782.36H355.41V951.52a5.34,5.34,0,0,0,1.7,3.9l115.65,106.5a5.27,5.27,0,0,0,3.58,1.41H798.19v155.5a19.58,19.58,0,1,0,10.59,0V1058a5.29,5.29,0,0,0-5.29-5.29H478.41l-43.57-40.13H897.32a5.3,5.3,0,0,0,3.85-1.66l167.7-178.08a19.35,19.35,0,0,0,9,2.29,19.77,19.77,0,1,0-16.73-9.54L895,1002H423.34L366,949.2V777.07a5.29,5.29,0,0,0-5.29-5.29H148.47l48.74-54.32H482l187,110.4a19.52,19.52,0,1,0,5.35-9.14L486.13,707.61a5.26,5.26,0,0,0-2.68-.73H411.64V632.71H528.07a5.29,5.29,0,0,0,5.29-5.29V443.53H733.5a19.58,19.58,0,1,0,0-10.59H533.36V353.41h65.23a19.58,19.58,0,1,0,0-10.59H528.07a5.29,5.29,0,0,0-5.29,5.3v274H406.35a5.29,5.29,0,0,0-5.29,5.3v79.46H194.85A5.29,5.29,0,0,0,190.91,708.64Z"/><path class="cls-2" d="M372.14,241.34v98.15L163.4,599.3H10.13l0,10.58H165.94a5.27,5.27,0,0,0,4.12-2L381.57,344.67a5.31,5.31,0,0,0,1.16-3.31v-100a19.57,19.57,0,1,0-10.59,0Z"/><path class="cls-2" d="M275.28,130.35V312.67l-75.14,97.39V38.33a19.58,19.58,0,1,0-10.58,0V423.78L113.63,522.2H9.94c0,3.53,0,7.06,0,10.59H116.23a5.26,5.26,0,0,0,4.19-2.06l164.33-213a5.22,5.22,0,0,0,1.11-3.22V130.35a19.57,19.57,0,1,0-10.58,0Z"/><path class="cls-2" d="M876.53,1438.64a19.52,19.52,0,0,0-18.76,14.29h-281a5.28,5.28,0,0,0-5.29,5.29v242.24L156.63,1996.14h-101V1724.49a5.29,5.29,0,0,0-5.29-5.29H17.12c.41,3.53.83,7.06,1.23,10.59H45v271.64a5.29,5.29,0,0,0,5.3,5.29H280.57a5.33,5.33,0,0,0,3-.94L541.9,1827.17H773.62a19.58,19.58,0,1,0,1-10.58H540.25a5.23,5.23,0,0,0-3,.94L278.91,1996.14h-104l405-288.64a5.26,5.26,0,0,0,2.22-4.31V1463.51H857.77a19.54,19.54,0,1,0,18.76-24.87Z"/><path class="cls-2" d="M470.06,2163.43a19.54,19.54,0,0,0-18.77,14.28H116.23a5.3,5.3,0,0,0-5.3,5.29v181.36H57.54c.08,3.53.15,7,.23,10.58h58.46a5.29,5.29,0,0,0,5.29-5.29V2188.29H451.29a19.54,19.54,0,1,0,18.77-24.86Z"/><path class="cls-2" d="M211.59,2492.18H61.28c.35,3.53.6,7.05.89,10.58H211.59a5.29,5.29,0,0,0,0-10.58Z"/></g></g></g></svg>